# xmcd CD database file
#
# Track frame offsets:
#	150
#	15631
#	29074
#	46560
#	58203
#	71873
#	98728
#	119905
#	136454
#	148557
#	167862
#	179681
#	199465
#
# Disc length: 2948 seconds
#
# Revision: 0
# Processed by: cddbd v1.5.1PL0 Copyright (c) Steve Scherf et al.
# Submitted via: Feurio! 1.64 - http://www.feurio.com
#
DISCID=cf0b820d
DTITLE=Медведев Олег - Таблетки от счастья
DYEAR=1999
DGENRE=Rock
TTITLE0=Таблетки от счастья
TTITLE1=Ирокез
TTITLE2=Дождь
TTITLE3=Журавлик (Сайонара)
TTITLE4=Религия
TTITLE5=Баллада о кроликах
TTITLE6=Вышли все мои сроки
TTITLE7=Солнце
TTITLE8=Не заходи за черту
TTITLE9=Полшага до песни
TTITLE10=Теплый север
TTITLE11=Изумрудный город
TTITLE12=Несмеянин день (Держи меня, ночь)
EXTD=
EXTT0=
EXTT1=
EXTT2=
EXTT3=
EXTT4=
EXTT5=
EXTT6=
EXTT7=
EXTT8=
EXTT9=
EXTT10=
EXTT11=
EXTT12=
PLAYORDER=
